<svg width="90" height="90" viewBox="0 0 90 90" fill="none" xmlns="http://www.w3.org/2000/svg">
<path d="M4.43408 4.92578H85.0995V84.7804H4.43408V4.92578Z" fill="url(#paint0_radial)" stroke="black"/>
<path d="M3.93406 3.92575H3.43406V4.42575V85.2803V85.7803H3.93406H85.5994H86.0994V85.2803V4.42575V3.92575H85.5994H3.93406ZM60.7335 44.5144L60.7334 44.5146L60.7447 44.5201C63.6236 45.9404 65.455 47.3066 66.5703 48.7716C67.673 50.2202 68.1059 51.8058 68.1059 53.7379C68.1059 56.6266 67.0296 58.8062 65.255 60.2729C63.4685 61.7495 60.9275 62.5408 57.9492 62.5408C54.7695 62.5408 52.0843 61.8763 50.6006 60.9939L50.5683 60.9747L50.5478 60.9664C50.5478 60.9657 50.5477 60.9649 50.5476 60.9641C50.5437 60.9324 50.5415 60.8888 50.5415 60.8241V55.5651C52.8876 57.0197 55.5275 57.672 57.9492 57.672C59.4748 57.672 60.6398 57.3466 61.4338 56.7284C62.2455 56.0964 62.6084 55.2058 62.6084 54.2285C62.6084 53.4098 62.3384 52.6482 61.5736 51.8444C60.8332 51.066 59.6228 50.2406 57.7365 49.244L57.7292 49.2402L57.7217 49.2365C55.1156 47.9686 53.3278 46.7183 52.1886 45.2887C51.0628 43.8759 50.5415 42.2511 50.5415 40.1653C50.5415 37.8629 51.4256 35.7677 53.0679 34.2453C54.7107 32.7224 57.1443 31.744 60.2876 31.744C63.4168 31.744 65.5577 32.222 66.6884 32.738C66.7288 32.7662 66.7512 32.7982 66.7676 32.8375C66.7896 32.8903 66.8028 32.9643 66.8028 33.061V38.0658C65.0759 37.032 62.6707 36.4311 60.2876 36.4311C58.7405 36.4311 57.63 36.8303 56.8988 37.464C56.1654 38.0996 55.8605 38.932 55.8605 39.6929C55.8605 40.0754 55.9071 40.4566 56.0604 40.8445C56.2137 41.2322 56.4622 41.598 56.8284 41.9682C57.5458 42.6935 58.7587 43.4775 60.7335 44.5144ZM27.8712 41.4196L27.8718 41.8784L28.3289 41.9172C29.2069 41.9917 29.8873 41.9917 31.3506 41.9917H31.3701C33.5829 41.9917 35.8148 41.6005 37.5035 40.372C39.2222 39.1217 40.2954 37.0661 40.2954 33.9331C40.2954 31.4301 39.528 29.4757 38.0464 28.1545C36.5742 26.8418 34.4701 26.2198 31.9234 26.2198C30.4276 26.2198 29.0062 26.2931 28.3266 26.3295L27.8528 26.3549L27.8533 26.8294L27.8712 41.4196ZM22.5698 21.4055H22.5813L22.5928 21.405C24.9571 21.2965 28.4834 21.2239 32.1376 21.2239C37.1863 21.2239 40.6151 22.6316 42.7842 24.8588C44.9564 27.0892 45.9358 30.2138 45.9358 33.7878C45.9358 38.454 44.2798 41.7323 41.6543 43.8556C39.0126 45.992 35.3304 47.0058 31.2094 47.0058C30.5143 47.0058 30.0492 46.9879 29.6311 46.9699C29.5948 46.9683 29.5588 46.9668 29.523 46.9652C29.1447 46.9487 28.7859 46.9331 28.3176 46.9331H27.8176V47.4331V61.8867H22.2487V21.4876C22.2523 21.4858 22.256 21.484 22.26 21.4821C22.3073 21.4596 22.3661 21.4394 22.4272 21.4251C22.4894 21.4106 22.5399 21.4055 22.5698 21.4055ZM88.7944 1.14648V88.5596H0.721191V1.14648H88.7944Z" fill="#31C5F0" stroke="black"/>
<defs>
<radialGradient id="paint0_radial" cx="0" cy="0" r="1" gradientUnits="userSpaceOnUse" gradientTransform="translate(30.8385 22.5656) scale(62.0565 61.1565)">
<stop stop-color="#34364E" stop-opacity="0.98"/>
<stop offset="1" stop-color="#0C0824"/>
</radialGradient>
</defs>
</svg>
