<svg width="22" height="20" viewBox="0 0 22 20" fill="none" xmlns="http://www.w3.org/2000/svg">
<path d="M11.2195 1.01448L12.9706 6.38887C13.1718 7.00632 13.7474 7.42418 14.3968 7.42418H20.0576C20.5422 7.42418 20.7434 8.0447 20.3509 8.32908L15.776 11.6437C15.2488 12.0257 15.0282 12.7041 15.2299 13.3231L16.9785 18.6897C17.1285 19.1502 16.6018 19.5336 16.2097 19.2495L11.6242 15.9272C11.0991 15.5467 10.3891 15.5467 9.86402 15.9272L5.27847 19.2495C4.88634 19.5336 4.35969 19.1502 4.50971 18.6897L6.25828 13.3231C6.45996 12.7041 6.23934 12.0257 5.71215 11.6437L1.13728 8.32908C0.744773 8.0447 0.945939 7.42418 1.43064 7.42418H7.09139C7.74078 7.42418 8.31642 7.00631 8.5176 6.38887L10.2687 1.01448C10.4186 0.554339 11.0696 0.554338 11.2195 1.01448Z" fill="#070707" stroke="black"/>
</svg>
